PathFileType	3	(X/Y/Z)	F:\ViconData\AntennenMessung\Messung1\Session1\ID16.trc
DataRate	CameraRate	NumFrames	NumMarkers	Units	OrigDataRate	OrigDataStartFrame	OrigNumFrames
120.0	120.0	4	70	mm	120.0	563	900	
Frame#	Time	Ashort			Along			Atop			A4			Bshort			Blong			Btop			B4			Cshort			Clong			Ctop			C4			Dshort			Dlong			Dtop			D4			Eshort			Elong			Etop			E4			Fshort			Flong			Ftop			F4			Gshort			Glong			Gtop			G4			Hshort			Hlong			Htop			H4			I1			I2			I3			I4			I5			WandAshort			WandAlong			WandAtop			WandA4			WandA15			WandBshort			WandB4			WandB5			WandBtop			WandBlong			WandCshort			WandClong			WandCtop			WandC4			WandC5			Acenter			Aantenna			Bcenter			Bantenna			Ccenter			Cantenna			Dcenter			Dantenna			Ecenter			Eantenna			Fcenter			Fantenna			Gcenter			Gantenna			Hcenter			Hantenna			Icenter			Iantenna			
		X1	Y1	Z1	X2	Y2	Z2	X3	Y3	Z3	X4	Y4	Z4	X5	Y5	Z5	X6	Y6	Z6	X7	Y7	Z7	X8	Y8	Z8	X9	Y9	Z9	X10	Y10	Z10	X11	Y11	Z11	X12	Y12	Z12	X13	Y13	Z13	X14	Y14	Z14	X15	Y15	Z15	X16	Y16	Z16	X17	Y17	Z17	X18	Y18	Z18	X19	Y19	Z19	X20	Y20	Z20	X21	Y21	Z21	X22	Y22	Z22	X23	Y23	Z23	X24	Y24	Z24	X25	Y25	Z25	X26	Y26	Z26	X27	Y27	Z27	X28	Y28	Z28	X29	Y29	Z29	X30	Y30	Z30	X31	Y31	Z31	X32	Y32	Z32	X33	Y33	Z33	X34	Y34	Z34	X35	Y35	Z35	X36	Y36	Z36	X37	Y37	Z37	X38	Y38	Z38	X39	Y39	Z39	X40	Y40	Z40	X41	Y41	Z41	X42	Y42	Z42	X43	Y43	Z43	X44	Y44	Z44	X45	Y45	Z45	X46	Y46	Z46	X47	Y47	Z47	X48	Y48	Z48	X49	Y49	Z49	X50	Y50	Z50	X51	Y51	Z51	X52	Y52	Z52	X53	Y53	Z53	X54	Y54	Z54	X55	Y55	Z55	X56	Y56	Z56	X57	Y57	Z57	X58	Y58	Z58	X59	Y59	Z59	X60	Y60	Z60	X61	Y61	Z61	X62	Y62	Z62	X63	Y63	Z63	X64	Y64	Z64	X65	Y65	Z65	X66	Y66	Z66	X67	Y67	Z67	X68	Y68	Z68	X69	Y69	Z69	X70	Y70	Z70	
563	4.6833333	-1038.2184	214.54387	-1644.1842	-1109.3555	204.0938	-1599.2726	-1063.6492	172.91306	-1625.9763	-1054.1461	262.24744	-1634.9381	-1352.7581	235.18384	1003.6733	-1281.3251	227.19717	1052.4578	-1322.8167	193.81845	1020.9774	-1284.6156	287.90402	1052.814	813.85278	187.52376	1209.4413	892.59387	179.27271	1178.6023	844.30951	145.70671	1198.1744	860.76251	293.31296	1166.9142	1115.7091	209.64401	-1401.5817	1056.1726	194.13535	-1460.2601	1095.0941	162.5343	-1423.8839	1069.7999	238.75053	-1425.7689	-1204.5551	1685.9585	-1563.1981	-1129.1066	1688.3492	-1606.2274	-1173.1538	1724.434	-1581.9331	-1134.0323	1580.9924	-1603.8573	-1239.5216	1698.9803	1119.4169	-1309.3553	1698.7686	1071.9153	-1270.4091	1736.2635	1096.8615	-1245.6095	1592.7489	1110.6274	988.82202	1664.2493	1162.1796	957.52783	1700.3765	1183.7975	922.61725	1662.0522	1214.9319	939.82153	1659.4233	1159.9392	999.03851	1668.4951	-1579.4305	1058.7294	1669.9989	-1518.6342	1024.9576	1708.0403	-1551.1007	1059.2445	1672.1705	-1585.442	-147.08324	1161.3002	-186.64252	-232.24872	1160.7018	-187.87917	-185.29259	1198.3601	-188.54124	-184.16032	1159.2861	-219.09027	-185.50298	1163.7018	-139.93108																																														-1068.5259	210.09166	-1625.0498	-1073.5964	248.74863	-1624.0868	-1321.3943	231.67715	1025.0929	-1319.9388	270.42175	1029.3046	847.56305	183.99135	1196.2386	850.86133	222.80205	1194.2762	1088.8032	202.6353	-1428.0996	1082.7914	240.95796	-1432.1285	-1171.9028	1686.993	-1581.8201	-1170.6006	1648.0149	-1581.7023	-1271.0502	1698.8846	1097.9706	-1271.7189	1659.9076	1099.1273	953.19489	1705.3785	1186.7905	973.05908	1733.5247	1168.5092	1026.4032	1669.1844	-1551.559	1027.853	1630.2141	-1552.0187	-185.04982	1161.0334	-187.1938	-184.79636	1122.0596	-185.78688
564	4.6916667	-1038.1987	214.56636	-1644.1777	-1109.3756	204.14577	-1599.2966	-1063.6978	172.93874	-1625.9153	-1054.1635	262.25555	-1634.9545	-1352.9226	234.9705	1003.6362	-1281.3607	227.2236	1052.455	-1322.7924	193.83174	1020.9871	-1284.6234	287.89609	1052.8033	813.87225	187.65186	1209.4962	892.0542	178.39645	1179.3462	844.32245	145.63498	1198.2452	860.98682	292.97101	1168.6311	1115.7424	209.90947	-1401.7531	1056.2051	194.06316	-1460.2006	1095.0325	162.4429	-1423.8486	1069.8176	238.75745	-1425.7891	-1204.5542	1685.9581	-1563.2001	-1129.1049	1688.2915	-1606.0179	-1173.1547	1724.429	-1581.9474	-1134.0332	1581.0115	-1603.8783	-1239.5112	1698.9821	1119.417	-1309.1215	1698.4027	1071.7838	-1270.4236	1736.3013	1096.8718	-1244.8989	1593.8113	1106.1832	988.84015	1664.2461	1162.1896	957.44702	1700.4508	1183.7371	922.54169	1662.049	1214.9435	939.79651	1659.415	1159.8593	999.06158	1668.4523	-1579.3986	1058.8713	1670.1743	-1518.6147	1024.9604	1708.0621	-1551.109	1059.2415	1672.167	-1585.4371	-147.06125	1161.3232	-186.65552	-232.23773	1160.6985	-187.86554	-185.36438	1198.4481	-188.54256	-184.16982	1159.3019	-219.08849	-185.4894	1163.6985	-139.94051																																														-1068.5776	210.11874	-1625.022	-1073.6516	248.77611	-1624.0931	-1321.496	231.56844	1025.075	-1320.1648	270.31897	1029.2729	848.07019	183.60339	1196.3081	851.8963	222.36485	1194.3306	1088.6925	202.70993	-1428.3076	1082.663	241.0069	-1432.5486	-1171.88	1686.9685	-1581.7428	-1170.5537	1647.9917	-1581.53	-1270.8594	1698.7211	1097.9658	-1271.3115	1659.7402	1099.1006	953.14978	1705.4064	1186.6864	973.00323	1733.5295	1168.3579	1026.4946	1669.2421	-1551.5187	1028.0347	1630.2747	-1551.9301	-185.10919	1161.0441	-187.19601	-184.84332	1122.0702	-185.79297
565	4.7	-1038.1719	214.47598	-1644.2395	-1109.3641	204.12115	-1599.2794	-1063.5656	172.92062	-1625.9792	-1054.1669	262.22446	-1634.9298	-1352.8219	235.14896	1003.7098	-1281.3661	227.30904	1052.3633	-1322.8612	193.80894	1020.9977	-1284.5177	287.97937	1052.7179	813.9295	187.58237	1209.4922	892.49231	179.18973	1178.7262	844.31122	145.69511	1198.1686	860.80255	292.91458	1167.7948	1115.702	209.63713	-1401.5809	1056.1858	194.07164	-1460.2141	1094.9834	162.39752	-1423.8616	1069.782	238.7821	-1425.7686	-1204.5505	1685.9637	-1563.1854	-1129.1213	1688.3446	-1606.2368	-1173.1401	1724.4219	-1581.9446	-1134.0426	1581.0039	-1603.8446	-1239.5336	1699.0161	1119.4321	-1309.3068	1698.7151	1071.8923	-1270.4381	1736.3035	1096.8783	-1244.8655	1593.8931	1106.2218	988.79907	1664.2354	1162.2009	957.43103	1700.4468	1183.7787	922.04498	1662.2252	1214.8573	939.78699	1659.4181	1159.8777	999.03876	1668.4878	-1579.4357	1058.8801	1670.1802	-1518.6121	1024.9658	1708.0544	-1551.1135	1059.2402	1672.1693	-1585.4326	-147.05045	1161.304	-186.64435	-232.21397	1160.6805	-187.86435	-185.35416	1198.4496	-188.54184	-184.16953	1159.2179	-218.86887	-185.48489	1163.7106	-139.92023																																														-1068.4325	210.07462	-1625.129	-1073.4967	248.7343	-1624.2443	-1321.4678	231.70885	1025.0585	-1320.0431	270.46103	1029.2106	847.66223	183.97878	1196.2821	851.05878	222.78352	1194.3699	1088.7158	202.57932	-1428.1667	1082.7385	240.89923	-1432.2725	-1171.8911	1686.9944	-1581.8257	-1170.5902	1648.0164	-1581.7023	-1271.0243	1698.8801	1097.9758	-1271.635	1659.9016	1099.1189	952.92542	1705.6478	1186.8778	972.93683	1733.7867	1168.7465	1026.49	1669.264	-1551.5337	1028.0212	1630.2965	-1551.9559	-185.09953	1161.0254	-187.18941	-184.83435	1122.0518	-185.78098
566	4.7083333	-1038.1985	214.50471	-1644.1669	-1109.3616	204.13828	-1599.2876	-1063.634	172.89738	-1625.9445	-1054.1547	262.22586	-1634.9247	-1352.8383	235.1636	1003.5884	-1281.3969	227.12927	1052.5127	-1322.7681	193.90419	1020.9708	-1284.512	287.93011	1052.7032	813.92639	187.60799	1209.4904	892.51263	179.47038	1177.7694	844.27734	145.68829	1198.1978	860.58344	293.01508	1167.2963	1115.7104	209.64374	-1401.5973	1056.2114	194.05383	-1460.204	1095.0088	162.45921	-1423.8817	1069.8286	238.82597	-1425.8077	-1204.558	1685.9656	-1563.1895	-1129.1154	1688.3069	-1606.1941	-1173.146	1724.4159	-1581.9342	-1134.0377	1581.0034	-1603.8663	-1239.5366	1699.024	1119.4399	-1309.2115	1698.5275	1071.8259	-1270.4442	1736.3203	1096.885	-1244.9086	1593.8363	1106.1682	988.85999	1664.2681	1162.1906	957.43793	1700.4662	1183.7784	922.67004	1661.9904	1214.9381	939.74548	1659.3944	1159.8787	999.03809	1668.4872	-1579.447	1058.8595	1670.1663	-1518.6364	1024.9534	1708.049	-1551.1167	1059.2469	1672.1752	-1585.4341	-147.05539	1161.3062	-186.63654	-232.22968	1160.6859	-187.86217	-185.29044	1198.3566	-188.53838	-184.13301	1159.2021	-218.98895	-185.48058	1163.6696	-139.94206																																														-1068.4945	210.09142	-1625.0603	-1073.5468	248.75186	-1624.1415	-1321.3767	231.62541	1025.1338	-1319.9479	270.36404	1029.4089	847.3689	184.145	1195.9915	850.48907	222.95618	1193.7646	1088.7273	202.57364	-1428.1755	1082.7275	240.89047	-1432.2771	-1171.9081	1686.9788	-1581.8008	-1170.6194	1648.0004	-1581.6621	-1270.9297	1698.8002	1097.9867	-1271.4341	1659.8203	1099.1313	953.2038	1705.3438	1186.6873	973.02344	1733.4845	1168.3494	1026.4818	1669.2574	-1551.5492	1028.0175	1630.29	-1551.9838	-185.03812	1161.0294	-187.18309	-184.77469	1122.056	-185.76805
